<svg xmlns="http://www.w3.org/2000/svg" viewBox="0 0 24 24" width="20" height="20" color="#ffffff" fill="none">
    <path fill-rule="evenodd" clip-rule="evenodd" d="M12.1002 2.9982C12.1012 3.55048 11.6543 3.999 11.102 4C9.26069 4.00331 7.95244 4.02946 6.95832 4.19037C5.99343 4.34655 5.43598 4.61383 5.02517 5.02464C4.58291 5.4669 4.30569 6.08056 4.15584 7.19512C4.00213 8.33845 4 9.85009 4 11.9997C4 14.1494 4.00212 15.661 4.15584 16.8044C4.30569 17.9189 4.5829 18.5326 5.02516 18.9748C5.46742 19.4171 6.08108 19.6943 7.19564 19.8442C8.33897 19.9979 9.85061 20 12.0003 20C14.1499 20 15.6616 19.9979 16.8049 19.8442C17.9194 19.6943 18.5331 19.4171 18.9754 18.9748C19.3862 18.564 19.6534 18.0066 19.8096 17.0417C19.9705 16.0476 19.9967 14.7393 20 12.898C20.001 12.3457 20.4495 11.8988 21.0018 11.8998C21.5541 11.9008 22.001 12.3493 22 12.9016C21.9967 14.7099 21.9748 16.182 21.7839 17.3613C21.5883 18.5697 21.2001 19.5785 20.3896 20.3891C19.5138 21.2648 18.4077 21.6467 17.0714 21.8263C15.7793 22 14.1328 22 12.0744 22H11.9262C9.86771 22 8.22126 22 6.92915 21.8263C5.59281 21.6467 4.48675 21.2648 3.61095 20.389C2.73515 19.5133 2.35334 18.4072 2.17367 17.0709C1.99996 15.7787 1.99998 14.1323 2 12.0738L2 11.9257C1.99998 9.86718 1.99996 8.22073 2.17368 6.92862C2.35334 5.59229 2.73516 4.48623 3.61095 3.61043C4.4215 2.79988 5.43031 2.41167 6.63875 2.21607C7.81796 2.0252 9.29011 2.00326 11.0984 2C11.6507 1.99901 12.0992 2.44592 12.1002 2.9982Z" fill="currentColor" />
    <path d="M16.6278 2.05969C17.5062 2.00814 19.2561 1.93287 20.3023 2.11815C20.7322 2.19428 21.1066 2.40101 21.3861 2.69873L21.3948 2.70812C21.6424 2.97543 21.8141 3.31484 21.882 3.69821C22.067 4.74418 21.9919 6.49371 21.9404 7.37214C21.8724 8.53179 20.4836 9.007 19.698 8.22141L18.4671 6.99058L15.7317 9.70515C15.3334 10.1004 14.6901 10.098 14.2948 9.69967C13.8996 9.30138 13.902 8.65808 14.3003 8.26282L17.0302 5.55371L15.7786 4.3021C14.9931 3.51657 15.4682 2.12775 16.6278 2.05969Z" fill="currentColor" />
</svg>